<?xml version="1.0" encoding="UTF-8"?><svg id="Layer_2" xmlns="http://www.w3.org/2000/svg" viewBox="0 0 370.06 396.36"><defs><style>.cls-1{fill:#edf1db;}</style></defs><g id="Layer_1-2"><path class="cls-1" d="M88.57,301.13c-7.38-.93-18.11-6.48-24.42-10.58-16.46-10.73-31.34-28.84-31.07-49.42,18.42,19.58,41.76,32.18,69.47,29.98,9.02-.71,17.57-4.6,26.51-4.99.74-4.11-6.5.07-6-4.99l39.96-10.05c-1.37-8.67-11.63-17.09-19.05-21.37-15.84-9.15-34.92-10.92-52.91-10.59,1.74-4.03,3.68-7.37,4.7-11.79,9.1-39.6-33.6-68.73-67.71-74.21-1.19-1.12,10.08-16.12,11.52-18.98C61.8,70.31,31.18,30.35.07,1.61-.35-.55,1.08.08,2.59.09c58.99.28,141.71,62.2,174.23,109.78-5.01,36.03.7,74,24.28,102.73,1.78,2.16,12.76,13.78,14.48,14.52,1.97.85,1.5-1.38,1.53-2.52.08-2.83-.98-5.23-1.08-7.93-.54-13.89-.06-27.99,3.05-41.54,17.79,15.47,32.11,34.26,47.5,51.99l1.48-.49c-1.18-1.31-2.76-3.89-1.58-5.55,3.26-4.58,27.19,2.79,32.58,4.05,1.66-5.4,4.7-40.13,8.52-41,2.52.4,4.04,3.7,5.29,5.7,12.99,20.91,25.1,65.57,19.9,89.5-6.34,29.21-42.91,50.5-71.48,42.08l-13.22-4.78c4.23,3.12,9.79,6.56,14.72,8.28,5.99,2.09,15.32,1.75,19.67,4.33s13.07,13.02,18.69,17.3c4.03,3.07,27.73,19.19,30.87,20.13,13.57,4.05,37.43-7.44,38.03,18.46-5.95-3.14-9.95-10.09-16.99-10.99l8,11.98-18-4.98,4.99,6.98-37,.02c.2,1.34,3.34,2.65,1.48,4-7.99.39-9.38-3.83-15.17-6.83-6.66-3.45-3.63,4.2-.33,7.34.23,1.75.06,1.52-1.5,1.51-8.51-.03-11.59-7.58-19.48-9.03.73,4.66,7.28,5.62,5.99,10.99-1.55,1.56-18.52-5.09-22.54-5.03-3.69.06-6.89,2.3-12.95,2.02-7.52-.35-15.48-1.08-23.01-1.55-14.69-.91-29.7-2.02-44.02-5.42l.1,2,3.41.97c-3.26-.62-6.44,1.09-9.49,1.09-5.36-.01-16.68-1.57-22.99-2.09-39.88-3.28-80.39-3.07-120.03-6.97-4.57-.45-11.81,1.68-14.48-2,6.26-2.14,8.87-6.91,17-5.02l-6-4.98c3.33.99,7.76-1.19,10.45-.99,1.82.13,3.41,2.02,4.87,1.78,4.09-.67,14.56-14,17.1-17.88,3.45-5.26,14.77-30.73,18.28-31.72,4.84-1.36,11.94.14,17.22-2.78,4.26-2.36,10.15-11.59,11.08-16.42-5.55-.5-12.1.68-17.5,0ZM251.54,255.58c-13.06.78-8.29,26.55,1.03,33.54,5.24,3.93,24.02,7.06,24.41-.41.56-10.91-13.26-33.86-25.43-33.13ZM313.42,261.48c-5.44,4.64-18.81,28.35-6.61,30.49s21.33-25.27,12.59-32.75c-2.08-.64-4.41.92-5.98,2.26ZM162.09,322.1l1.49-6.96c-10.87,15.5-26.97,29.43-46.96,30.04-8.45.26-16.87-2.28-25.26-2.34l-22.28,32.29c1.54.34,2.94.92,4.55,1.04,5.37.41,9.83.42,14.95.39,3.17-.02,10.68,2.36,14.95,2.62,20.53,1.28,40.92-3.6,61.53-2.42,4.19.24,8.74.08,13,.38.45-1.73-.71-2-1.49-3-4.82-6.24-20.73-22.47-20.56-29.45s10.39-12.61,16.33-14.76c2.37-.86,5.74-.07,6.71-1.77l-16.97-6.04ZM239.06,379.13c.58-.97-3.3-6.07-4.17-7.32-2.6-3.72-12.88-16.49-16.56-17.52-2.65-.75-5.65,1.71-7.75-1.17l-3.52-13.99c-5.99,9.22-16.87,7.1-25.99,11.01l15.01,18.48c7.63,2.37,16.6-.16,23.48,3.55,2.73,1.48,4.1,4.55,6.47,5.49,4.12,1.63,8.79.98,13.03,1.46ZM320.07,382.12c-13.51-13.46-32.71-18.38-49.36-26.13-7.98-3.72-10.25-6.29-18.68-8.45-1.3-.33-7.88-5.51-8.96-4.4-.34,1.5.55,2.19,1.19,3.3,3.68,6.44,15.45,21,21.91,24.09,8.72,4.18,17.99,1.66,27.15,3.85,8.57,2.05,16.58,9.54,26.75,7.74Z"/><path class="cls-1" d="M325.06,86.13c-3.03,7.17-7.58,13.57-10.85,20.64-6.26,13.52-10.8,28.56-13.83,43.17-1.61,7.77-1.78,16.92-3.77,24.23-1.84,6.75-7.7,13.25-10.32,19.68s-3.71,14.16-5.32,21.18l-14.91-.39c-4.4-5.72-7.27-12.49-12.02-17.98-8.08-9.34-20.43-11.65-18.86-26.92,1.25-12.2,13.24-29.54,20.92-39.08,17.4-21.65,41.08-39.56,68.97-44.52Z"/></g></svg>