<?xml version="1.0" encoding="UTF-8"?><svg id="Layer_2" xmlns="http://www.w3.org/2000/svg" viewBox="0 0 448.98 431.83"><defs><style>.cls-1{fill:#edf1db;}</style></defs><g id="Layer_1-2"><path class="cls-1" d="M151.66,28.53c-.49.69-2.24.93-2.94,2.51-.96,2.16-.26,6.4-1.65,7.37-5.1.29-8.05-1.03-12.16,3.06,1.64,5.84,4.32,11.91,4.96,17.99.44,4.16-1.44,18.04.8,19.46,2.82,1.79,14.15.93,16.9-1.01,4.52-3.2.27-14.05,5.93-18.05,4.56,4.17,1.55,11.19,2.54,16.44.74,3.91,3.73,4.29,2.98,11.06s-4.14,4.74-5.78,6.73c-.54.65-1.43,5.29-1.78,6.72-9.15,37.78-13.96,77.85-23.23,115.76l4.77,6.75c-1.85,3.91-15.56,3.33-16.06,5.13l10.06,103.38,2.24-1.26,32.34-101.68c.14-3.86-8.48-1.62-8.54-7.63-.04-3.61,6-9.98,8.13-13.75,5.17-9.17,8.67-20.55,14.01-28.99,2.87-4.54,8.38-8.94,10.58-13.42,6.05-12.33,6.72-33.87,7.5-47.5l10.74-42.75c-10.7,2.86-13.91,17.15-15.69,26.8-.99,5.4-.78,15.7-2.57,19.43-2.15,4.49-7.36,4.76-10.22.73-3.52-4.95.59-9.41,1.37-14.59,1.87-12.54-1.05-27.38,6.67-38.33,2.51-3.56,20.65-21.71,24.1-23.9,6.26-3.96,14.32-3.84,21.11-6.39,3.76-9.59-4.87-17.96,6.28-25.22,7.16-4.66,18.16-3.53,22.74,4.16-1.06,4.74,2.09,16.02,1.02,19.57-.65,2.16-5.27,6.41-5.02,10.53l-9.72,2.28c-1.12,1.6,3.16,9.76,3.94,12.4,5.93,20.27,4.38,24.05,20.97,39.03,7.54,6.81,18.94,10.38,14.97,23.45-4.69,1.17-5.99-4.09-8.01-5.41-3.3-2.15-8.84-5.84-12.24-7.76-8.69-4.91-19.7-6.97-26.21-15.79-1.28,6.4-6.62,15.11-6.59,21.51.08,14.21,20.37,31.92,19.07,51.98-.77,11.93-7.4,36.9-2.29,47.26,1.11,2.25,13.18,7.19,16.32,7.26,3.17,3.77-12.46,7.59-15.01,6.99v1.49s16,72.51,16,72.51l22.86-64.73c1.12-3.71-4.12-2.83-5.37-5.24-2.34-4.51,4.33-9.08,6.7-13.35,4.91-8.85,6.47-20.35,10.63-29.37,2.28-4.94,6.38-8.79,8.69-13.31,5.27-10.33,5.81-22.78,9.27-33.74-1.86-16.66,5.45-33.5,6.23-50.25-6.8,4.87-9.04,17.64-9.87,25.62-.52,4.99,1.48,26.92-6.47,26.16-8.78-.84-3.95-11.32-3.64-15.27.66-8.71-.79-18.34,0-26.99,1.2-13.06,17.55-40.4,28.66-47.34,3.32-2.07,10.26-3.72,11.84-7.22,1.86-4.13-3.92-11.77,2.93-19.01,5.53-5.85,19.69-5.75,23.32,1.78.49,1.01,3.32,14.95,3.23,15.76-.2,1.88-6.06,8.25-5.02,12.52-4.12-1.6-7.57-1.08-11.07,1.61,6.47,15.89,1.99,30.93,16.07,42.9,5.52,4.7,24.36,14.5,25.8,20.2.43,1.71.2,3.55.21,5.28-2.73-.16-4.24-2.69-6.76-3.73-6.96-2.86-15.88-5.19-22.92-8.08-5.53-2.27-9.99-5.82-14.8-9.2-.38,6.44-4.53,15.04-3.48,21.43.58,3.5,8.08,15.3,10.14,19.91,12.01,26.83,8.39,35.96,11.83,63.17.35,2.76.95,7.73,1.91,10.09,2.48,6.14,15.52,6.49,16.08,8.93.98,4.27-14.67,5.89-14.86,7.96l31.87,105.52,9.98-40.99c.85,22.91-6.09,45.15-4.98,67.99l15-40.99-6,46.99,9.28-24.21,6.7-11.78c-2.01,10.16-4.9,20.14-5.98,30.51-1.98,19.01-.47,38.3-1.12,57.38l-439.9.11c-.53-36.34,1.53-72.83-1.98-109l4.26,9.22c2.8,7.18,3.8,14.87,5.73,22.27.36,1.38-.03,3.11,1.99,3.5,4.67-18.76,1.84-37.05.02-56l2.51,3.98,4.47,22.01,24.97-106.57c-.11-3.7-9.61-3.55-8.83-8.69.26-1.68,7.53-9.61,9.39-12.71,5.89-9.82,8.54-23.44,14.65-32.35,3.77-5.51,11.07-9.16,13.33-15.67,1.31-3.79,3.56-17.58,3.52-21.51-.02-2.67-1.84-4.76-1.95-7.05-.42-8.6,4.32-14.85,6.45-22.42,3.21-11.38,4.91-23.21,8.5-34.5-.8-1.54-1.74-.12-2.53.47-5.33,4.01-15.07,23.34-16.25,29.75-1.04,5.63,1.76,11.99-2.89,16.11-5.82,5.17-10.75-2.46-10.39-8.31.2-3.29,2.26-6.22,2.81-9.27,5.29-29.41,6.85-43.17,34.93-59.07,9.74-5.52,18.55-5.92,29.23-8.28.45-4.87-3.28-9.28-2.74-14.15,1.38-12.29,14.44-15.86,24.8-12.26,8.92,3.11,4.66,6.56,5.01,11.99.3,4.72,3.6,11.1.67,15.2ZM154.97,94.87c-9.8-2.19-21.77,4.76-27.97-6.05-.99,6.7-6.27,15.23-6.95,21.6s9.09,24.16,11.68,32.15c7.34,22.61,2.39,24.1-1.47,45.02-1.49,8.06-5.7,24.17,3.25,28.21l21.46-120.94ZM125.99,342.33c.98,9.98-.72,21.36,0,31.5l7.04-28.55-14.04-117.45c-15.72,2.19-7.68-13.21-7.01-22.52,1.03-14.23-1.3-28.76.99-42.92l-11-17.56-2.07.62c-3.78,7.14-6.6,15.84-11.5,22.29-7.64,10.05-27.49,24.67-29.35,37.66-1.66,11.57,7.48,10.81,9.46,15.41,2.48,5.76-13.14,3.22-15.87,2.13-1.31.36-1.64,1.83-2.16,2.88-4.09,8.27-7.8,26.83-10.41,36.59-8.26,30.88-18.12,64.04-18.13,95.97l2.04,11.45c1.6-18.12,5.66-35.86,10.07-53.44l2.93-6.55c-1.56,18.82-3.01,37.65-4.04,56.45-.06,1.16-.69,5.55,1.03,5.54,5.31-26.22,13.04-52.3,25.52-75.99-.13,7.33-3.6,15.25-5.43,22.57-4.42,17.7-10.13,37.18-7.07,55.42l6.27-29.21,3.71-8.78-.03,33.54,2.03,11.45,11.02-64.99v62.99s14-63.99,14-63.99c1.72-.19,1.1,3.45,1.03,4.53-1.27,19.15-4.54,38.12-3.03,57.46l15-60.99-4,58.99,20-60.99c1.77-.26.98,2.25.76,3.26-4.23,19.32-9.23,38.73-8.76,58.73l16-45.99c1.8-.24.91,2.18.74,3.24-2.19,13.75-8,27.51-5.74,41.75l8-37.99c.95-.05,1.94,5.01,1.99,5.49ZM242.23,231.59c-2.22-2.23-.05-15.79-.25-20.25-.41-9.21-4.02-20.15-4.08-29.01-.03-4.56,2.69-11.86,1.93-15.75-.36-1.81-9.32-11.58-11.32-13.75-.72-.78-3.46-3.96-4.51-2.99-1.62,6.51-3.6,14.66-7.17,20.33-3.88,6.15-12.06,12.43-16.8,18.2-6.21,7.53-18.37,22.67-15.78,32.73,1.31,5.1,8.1,5.64,7.75,10.73-3.94,1.82-11.23-2.12-13.91,1.6-2.92,4.05-8.92,23.73-11.1,29.89-6.39,18.07-30.13,82.61-27.5,97.55.19,1.05.08,3.23,1.5,2.96l7-22.99-1.98,29.99,16.49-57.01c-.18,13.74-4.6,27.63-5.49,41.52-.29,4.47.17,9.02,0,13.49l4.53-13.95c3.08-8.75,13.82-33.02,19.95-39.06,2.02-1.99,1.85-.57,1.1,1.1-7.31,16.25-14.08,34.46-15.57,52.43-.1,1.17-.84,5.47.97,5.48,1.77-7.61,4.76-15.49,7.84-22.67,2.11-4.92,4.76-11.49,8.16-15.33-1.68,12.74-7.72,24.87-6.49,38.01,7.72-21.23,17.9-44.21,34.49-60.01l-15.01,30.48c-4.02,11.56-7.72,23.26-8.97,35.51l10.13-23.35,8.85-14.64c-4.47,12.54-4.37,25.88-6.77,38.74-.36,1.93.08,1.21,1.77,1.26,4.75-17.65,12.22-34.85,22.51-50l-10.06,31.94-1.44,20.05,15-32.99c1.77-.26.98,2.25.76,3.26-2.3,10.42-7.6,20.26-5.76,31.73l10.49-26.99c2.82,7.11-.38,16.08.49,22.51.19,1.36.58,3,1.99,1.48,4.97-15.63,2.8-30.29.02-46,1.45.51,2.57,3.88,3.17,5.32,3.79,9.12,4.63,18.69,6.84,28.18.36,1.54-.67,1.74,1.98,1.5,4.37-16.96-.87-34.09-2.98-51,1.42.03,1.97,2.84,2.45,4.03,3.66,8.98,5.61,18.61,8.03,27.96l14.36-37.44-17.9-83.51-9.72-1.28ZM290.99,332.83v44c2.59.73,2.61-2.35,3.26-4.23,3.57-10.3,5.95-22.17,8.75-32.77,1.84.7,1.08,5.85.98,7.48-.74,11.89-3.5,23.59-3.98,35.5l5.96-11.52,4.02-4.47c-.28,5.69-3.95,11.37-2.5,16.99,3.77-4.36,5.77-9.7,8.25-14.8.66-1.35-.64-2.76,2.25-2.19l-2.98,21.99,11.49-22.01c2.06,7.6-1.87,14.82-3.49,22l13.01-19.99c1.72-.06,2.14-.55,1.92,1.42-.68,6.14-4.4,12.99-3.93,19.57l11.49-17.99-2.01,16.99,10.52-17.99c1.59-.11,2.27-.47,1.98,1.47-.65,4.44-4.83,10.6-4.5,15.51,3.22-4.58,6.02-9.55,8.36-14.64,2.03-4.4,2.39-10.35,6.13-13.36.96,8.57-2.32,17.22-2.97,25.52-.09,1.1-.74,3.72.97,3.47,7.15-15.68,12.85-31.97,16.03-48.99,1.74-.24.94,2.27.99,3.48.46,11.94-1.68,23.75-3.55,35.47-.17,1.05-1.34,3.27.53,3.03,6.3-14.38,12.69-29.41,15.02-44.99,2.77,1.03,2.13,5.15,2.03,7.54-.45,11.47-3.81,22.78-4.92,34.09-.11,1.11-.92,3.59.86,3.36,8.06-17.25,11.37-35.07,13.02-53.99,1.49-.04,1.46,3.56,1.68,4.8,2.66,15.11.99,30.96.32,46.19l8.86-27.5-35.51-110.36c-11.53.35-7.06-3.3-7.46-9.53-.82-12.64-8.4-25.12-8.89-37.14-.16-3.91,1.07-6.76,1.08-9.98.02-7.55-11.99-13.91-15.6-20.49-2.16-.37-1.15.44-1.57,1.38-8.19,18.41-13.45,23.32-23.94,39.08-3.13,4.7-12.78,21.04-11.8,25.79,1.09,5.26,11.31,8.97,10.82,11.22-2.46,4.45-17.22-1.16-17.98-.48l-26.33,71.17c-1.2,16.18,5.68,32.66,7.32,48.81l3.97-25.56,2.02-2.43ZM277,382.83c3.23-2.67,2.7-9.57,2.99-13.48l-7.99-43.51c-7.36,17.48-8.24,34.22-6.01,52.99,1.29,1.7,1.81-.13,1.99-1.49,1.11-8.71,1.95-17.36,4.14-25.88.29-1.14.27-3.75,1.86-3.62l3.02,34.99Z"/></g></svg>