<?xml version="1.0" encoding="UTF-8"?><svg id="Layer_2" xmlns="http://www.w3.org/2000/svg" viewBox="0 0 370.7 462.04"><defs><style>.cls-1{fill:#edf1db;}</style></defs><g id="Layer_1-2"><path class="cls-1" d="M59.31,251.15c-13.41-1.81-25.97-12.49-29.39-25.61-5.72-21.96.5-39.16,15.88-54.9.39-.89-8.21-.88-8.69-7.12-.38-4.91,8.28-24.43,11.14-29.43,7.92-13.87,26.83-6.69,33.03-14.97,4.1-5.47-4.11-10.21-4.4-16.55-.5-11.07,8.22-13.13,16.45-16.4.91-6.05.04-12.51,6.47-15.53,7.58-3.54,12.36,1.3,20,.5-.25-5.86-5.98-4.89-6.93-11.56-1.49-10.53,7.09-15.92,7-22.98-.07-5.48-9.62-6.41-3.5-15.39C121.87,13.15,141.65,1.41,151.42.25c18.97-2.24,47.33,10.75,59.42,25.37,8.81,10.66.63,10.42-2.08,18.96-.94,2.97-.49,6.38-1.45,8.55-.7,1.59-3.67,2.68-4.28,4.72-1.56,5.23,1.83,10.94-.98,17.04-2.17,4.71-7.96,3.89-9.31,5.93-.48.72-3.81,8.24-4.25,9.5-1.69,4.81-.08,13.23-8.14,12.91-5.62-.22-9.01-6.93-14.53-4.07-1.37,1.84,11.58,12.84,8.55,22.05-.64,1.95-2.9,3.11-3.37,4.66-1.25,4.17,6.85,35,7.68,42.91.43,4.1-.04,8.27.13,12.37,7.27-3.02,31.13-5.69,34.86-11.63,1.37-2.17,1.5-5.19,2.63-7.37,6.19-11.84,16.24-15.22,29-16.01,2.11-.13,4.02,1.79,6.5.56.89-.44,11.28-13.02,12.98-15.07,4.35-5.26,15.41-22.79,20.77-24.23,5.14-1.37,13.02,2.25,18.77,2.74,11.56.98,23.34-1.96,34.48,3.03.95,1.31-5.26,8.48-6.48,10-14.26,17.74-32.17,32.71-53.11,41.89-2.81,6.46-6.27,14.1-9.97,20.03-4.67,7.51-12.21,9.63-16.88,16.12-3.06,4.26-7.31,18.94-10.59,20.44-5.33,2.42-23.52-8.94-31.47-8.56-8.54.4-23.35,11.94-33.51,11.07.46,6.53,3.17,13.39.24,19.73-.93,2.02-4.24,3.79-4.08,5.58l25.8,61.26c1.25,8.65-4.72,6.86-5.81,8.56-2.79,4.37,10.08,27.85,10.74,34.47.52,5.14-1.06,9.66-.93,14.93.2,8.14,1.29,34.19,3.53,40.47.74,2.07,2.81,3.5,3.31,5.69s-.18,4.56.4,6.6c1.37,4.8,17,12.2,21.97,13.04,3.49.59,10.13-.74,13.42,1.58,5.99,4.23,2.62,13.78-2.58,17.07,6.34,1.77,11.66.07,18,0,.5-.34-1-1.28-1-1.49v-19l14-15.49c-6.49.84-12.42,2.95-19.06,1.55-4.41-.93-15.4-5.88-13.94-11.56h17.5c9.64,0,23.35-21.25,30.56-26.44,6.06-4.36,26.89-8.73,28.54-14.53,1.23-4.3-5.06-6.66-7.15-9-9.19-10.3-11.9-26.7-13.46-40.03,12.46.91,21.27,11.01,31.48,17.01,2.52.06-5.23-16.75-1-16.99.81-.04,11.36,9,12.5,10.48,2.59,3.37,3.96,9.54,6.94,12.06,2.54,2.16,6.71,2.42,9.77,4.23,7.71,4.55,6.99,10.92,10.44,17.57,1.85,3.56,5.15,2.43,3.1,8.37-3.55,10.25-15.09,11.65-22.75,17.26-.98,7.1-.8,13.85-5.05,19.95-2.66,3.81-7.02,5.06-7.49,10.57-.73,8.56,5.45,24.38,12.91,29.14,4.98,3.17,12.01,3.61,14.14,10.36h-16.5c-6.29,0-16.71-17.87-17.51-24-4.7,4.57-8.53,11.65-15.98,11.99-1.2-7.43,3.97-13.6,4.91-20.6.25-1.86.76-2.43-1.43-2.43s-10.89,2.01-12.24,3.29c-2.04,1.93-3.52,10.04-6.97,12.23,2.36,3.66,3.47,9.27,6.28,12.46,3.06,3.47,8.77,3.33,9.44,8.05-3.96-.35-8.6.55-12.44-.05-7.26-1.14-14.38-18.68-17.08-24.95-13.09,4.23-17.21,14.28-3.92,21.97l-1.22,3.08c-12.64.17-25.26.36-37.88.91-70.29,3.06-142.53,4.26-212.92,1-4.03-.19-21.89,1.21-23.54-2.46.96-.4,4.24-2.5,4.5-2.5h21.5c-.63-4.99-7.8-4.89-11.68-6.82-5.28-2.63-17.7-14.26-17.11-20.44.08-.86,6.12-14.14,6.75-15.01,4.75-6.49,11.04-12.65,15.46-19.81,4.67-7.58,9.95-22.28,16.06-27.94,1.56-1.45,4.21-1.78,5.56-3.44,1.21-1.49,1.26-3.87,2.5-5.5,3.15-4.14,7.36-6.11,9.66-11.34.9-2.04,6.64-20.94,5.81-21.7-4.76.02-12.21-5.06-10.98-10.41l24.97-61.59c-5.2-.5-11.46.68-16.5,0ZM147.8,135.14c-1.42-19.93-19.8-36.66-39.98-34.98l11.68,3.81c8.93,3.79,16.44,8.99,21.68,17.32l6.63,13.86ZM149.8,165.15c-2.32-6.3-2.97-14.09-7.98-19,2.32,6.3,2.97,14.09,7.98,19ZM128.8,228.16c-7.59-1.5-11.39-8.39-15.16-14.34l-20.82-48.67c2.26,15.56,9.98,34,17.82,47.67,3.55,6.18,6.84,12.22,13.6,15.4.75.35,4.69,2,4.56-.06ZM166.81,184.16c-5.57-2.24-11.44.34-16.31,3.17-1.25.73-4.02,2.52-4.68,3.81,5.82-1.95,11.52-3.48,17.49-4.99,1.39-.35,3.11.01,3.5-1.99ZM173.81,452.14c-2.97-7.14-2.84-14.82-4.24-22.25-1.76-9.34-3.75-11.75-7.22-19.78-3.02-6.98-9.39-21.75-10.32-28.73-.48-3.64,1.03-5.88.78-8.65-.23-2.53-2.79-4.69-2.99-7.18-.17-2.06,1.14-3.95.81-5.68-.36-1.86-9.02-11.13-11.04-14-5.18-7.37-7.71-21.04-18.8-11.99-6.38,12.53-11.96,30.84-22.5,40.24-6.09,5.44-7.66,7.42-12.95,13.05-9.37,9.96-19.63,19.06-29.53,28.47-1.52,2.22-4.08,10.24-3.57,12.48.32,1.41,4.03,9.8,4.88,10.72,3.91,4.28,15.95,2.9,18.17,7.33.81,1.62.6,6.67,2.18,7.02l96.34-1.05Z"/></g></svg>