<svg width="31" height="33" viewBox="0 0 31 33" fill="none" xmlns="http://www.w3.org/2000/svg">
<g filter="url(#filter0_d_99_172)">
<path d="M7.28571 1.625C5.47344 1.625 4 3.08242 4 4.875V21.125C4 22.9176 5.47344 24.375 7.28571 24.375H23.7143C25.5266 24.375 27 22.9176 27 21.125V4.875C27 3.08242 25.5266 1.625 23.7143 1.625H7.28571ZM15.5 12.5633C16.2444 11.0398 18.2723 8.20625 20.1565 6.80977C21.517 5.79922 23.7143 5.02227 23.7143 7.50547C23.7143 8.00313 23.4268 11.6746 23.2574 12.2688C22.6721 14.3406 20.5364 14.8687 18.6368 14.5488C21.9585 15.1074 22.8056 16.9609 20.9779 18.8145C17.5125 22.3336 15.998 17.9309 15.6078 16.8035L15.5924 16.7578C15.5462 16.6258 15.5205 16.5496 15.5 16.5496C15.4795 16.5496 15.4538 16.6258 15.4076 16.7578C15.4025 16.773 15.3973 16.7883 15.3922 16.8035C15.002 17.9309 13.4875 22.3285 10.0221 18.8145C8.19955 16.9609 9.04152 15.1074 12.3632 14.5488C10.4636 14.8687 8.3279 14.3406 7.74263 12.2688C7.57321 11.6746 7.28571 8.00313 7.28571 7.50547C7.28571 5.02227 9.48817 5.8043 10.8435 6.80977C12.7277 8.20625 14.7556 11.0449 15.5 12.5633Z" fill="#EDF1DB"/>
</g>
<defs>
<filter id="filter0_d_99_172" x="0" y="0" width="31" height="34" filterUnits="userSpaceOnUse" color-interpolation-filters="sRGB">
<feFlood flood-opacity="0" result="BackgroundImageFix"/>
<feColorMatrix in="SourceAlpha" type="matrix" values="0 0 0 0 0 0 0 0 0 0 0 0 0 0 0 0 0 0 127 0" result="hardAlpha"/>
<feOffset dy="4"/>
<feGaussianBlur stdDeviation="2"/>
<feComposite in2="hardAlpha" operator="out"/>
<feColorMatrix type="matrix" values="0 0 0 0 0 0 0 0 0 0 0 0 0 0 0 0 0 0 0.25 0"/>
<feBlend mode="normal" in2="BackgroundImageFix" result="effect1_dropShadow_99_172"/>
<feBlend mode="normal" in="SourceGraphic" in2="effect1_dropShadow_99_172" result="shape"/>
</filter>
</defs>
</svg>
