<svg width="31" height="34" viewBox="0 0 31 34" fill="none" xmlns="http://www.w3.org/2000/svg">
<g filter="url(#filter0_d_99_147)">
<path d="M13.9804 11.1639C13.6814 11.3692 13.4246 11.633 13.2249 11.9402C13.0252 12.2475 12.8863 12.5921 12.8162 12.9545C12.6747 13.6863 12.822 14.4459 13.2257 15.0662C13.6294 15.6865 14.2565 16.1166 14.9689 16.262C15.6814 16.4074 16.4209 16.2561 17.0248 15.8414C17.6286 15.4267 18.0474 14.7826 18.1889 14.0508C18.3305 13.319 18.1832 12.5593 17.7795 11.9391C17.3757 11.3188 16.7487 10.8886 16.0362 10.7433C15.3237 10.5979 14.5842 10.7492 13.9804 11.1639ZM21.2859 7.55684C21.019 7.28262 20.6955 7.06641 20.3413 6.92402C19.4121 6.54961 17.3842 6.56543 16.075 6.58125C15.8645 6.58125 15.6694 6.58652 15.5 6.58652C15.3306 6.58652 15.1304 6.58652 14.9147 6.58125C13.6056 6.56543 11.5879 6.54434 10.6587 6.92402C10.3045 7.06641 9.98616 7.28262 9.71406 7.55684C9.44196 7.83105 9.23661 8.16328 9.09799 8.52715C8.73348 9.48164 8.75402 11.5699 8.76429 12.9146C8.76429 13.1309 8.76942 13.3313 8.76942 13.5C8.76942 13.6687 8.76942 13.8691 8.76429 14.0854C8.75402 15.4301 8.73348 17.5184 9.09799 18.4729C9.23661 18.8367 9.4471 19.1637 9.71406 19.4432C9.98103 19.7227 10.3045 19.9336 10.6587 20.076C11.5879 20.4504 13.6158 20.4346 14.925 20.4188C15.1355 20.4188 15.3306 20.4135 15.5 20.4135C15.6694 20.4135 15.8696 20.4135 16.0853 20.4188C17.3944 20.4346 19.4121 20.4557 20.3413 20.076C20.6955 19.9336 21.0138 19.7174 21.2859 19.4432C21.558 19.1689 21.7634 18.8367 21.902 18.4729C22.2717 17.5236 22.2511 15.4459 22.2357 14.0959C22.2357 13.8744 22.2306 13.6687 22.2306 13.4947C22.2306 13.3207 22.2306 13.1203 22.2357 12.8936C22.2511 11.5488 22.2717 9.47109 21.902 8.5166C21.7634 8.15273 21.5529 7.82578 21.2859 7.54629V7.55684ZM17.8411 9.90352C18.7697 10.5413 19.4136 11.5318 19.6312 12.6573C19.8488 13.7827 19.6222 14.9508 19.0013 15.9047C18.6939 16.377 18.2989 16.7825 17.8389 17.098C17.3789 17.4135 16.863 17.6328 16.3204 17.7435C15.2248 17.967 14.0875 17.7342 13.1589 17.0965C12.2303 16.4594 11.5861 15.4695 11.368 14.3446C11.15 13.2196 11.3759 12.0518 11.9961 11.0979C12.6163 10.1441 13.58 9.48239 14.6752 9.2584C15.7704 9.0344 16.9073 9.26645 17.8359 9.90352H17.8411ZM19.3402 9.83496C19.181 9.72422 19.0527 9.56602 18.9757 9.38144C18.8987 9.19687 18.8833 8.99648 18.9192 8.79609C18.9551 8.5957 19.0527 8.42168 19.1862 8.2793C19.3196 8.13691 19.4993 8.04199 19.6893 8.00508C19.8792 7.96816 20.0795 7.98398 20.2592 8.06309C20.4388 8.14219 20.5929 8.26875 20.7007 8.43223C20.8085 8.5957 20.865 8.79082 20.865 8.99121C20.865 9.12305 20.8393 9.25488 20.7931 9.37617C20.7469 9.49746 20.6699 9.6082 20.5826 9.70312C20.4953 9.79805 20.3824 9.87187 20.2643 9.92461C20.1462 9.97734 20.0179 10.0037 19.8895 10.0037C19.6944 10.0037 19.5045 9.9457 19.3453 9.83496H19.3402ZM27 5.0625C27 3.20098 25.5266 1.6875 23.7143 1.6875H7.28571C5.47344 1.6875 4 3.20098 4 5.0625V21.9375C4 23.799 5.47344 25.3125 7.28571 25.3125H23.7143C25.5266 25.3125 27 23.799 27 21.9375V5.0625ZM22.3281 20.5137C21.3681 21.4998 20.2027 21.8109 18.8884 21.8795C17.533 21.9586 13.467 21.9586 12.1116 21.8795C10.7973 21.8109 9.63192 21.4998 8.67188 20.5137C7.71183 19.5275 7.40893 18.3305 7.34732 16.9805C7.27031 15.5883 7.27031 11.4117 7.34732 10.0195C7.41406 8.66953 7.71183 7.47246 8.67188 6.48633C9.63192 5.5002 10.8025 5.18906 12.1116 5.12578C13.467 5.04668 17.533 5.04668 18.8884 5.12578C20.2027 5.19434 21.3681 5.5002 22.3281 6.48633C23.2882 7.47246 23.5911 8.66953 23.6527 10.0195C23.7297 11.4064 23.7297 15.5777 23.6527 16.9752C23.5859 18.3252 23.2882 19.5223 22.3281 20.5084V20.5137Z" fill="#EDF1DB"/>
</g>
<defs>
<filter id="filter0_d_99_147" x="0" y="0" width="31" height="35" filterUnits="userSpaceOnUse" color-interpolation-filters="sRGB">
<feFlood flood-opacity="0" result="BackgroundImageFix"/>
<feColorMatrix in="SourceAlpha" type="matrix" values="0 0 0 0 0 0 0 0 0 0 0 0 0 0 0 0 0 0 127 0" result="hardAlpha"/>
<feOffset dy="4"/>
<feGaussianBlur stdDeviation="2"/>
<feComposite in2="hardAlpha" operator="out"/>
<feColorMatrix type="matrix" values="0 0 0 0 0 0 0 0 0 0 0 0 0 0 0 0 0 0 0.25 0"/>
<feBlend mode="normal" in2="BackgroundImageFix" result="effect1_dropShadow_99_147"/>
<feBlend mode="normal" in="SourceGraphic" in2="effect1_dropShadow_99_147" result="shape"/>
</filter>
</defs>
</svg>
