<?xml version="1.0" encoding="UTF-8"?><svg id="Layer_2" xmlns="http://www.w3.org/2000/svg" viewBox="0 0 435 437.72"><defs><style>.cls-1{fill:#edf1db;}</style></defs><g id="Layer_1-2"><path class="cls-1" d="M396.01,357.71l11.82-36.66c4.03-8.19,7.02-18.41,14.16-24.33l-16.98,66c7.3-8.25,12.87-17.9,21.49-25,1.13-.93,1.61-2.43,3.5-1.99.49.51-1.39,4.74-1.83,5.66-5.23,10.98-17.97,29.67-21.15,39.85-.16.51-.27,1.63.48,1.48,7.93-7.78,16.31-17.46,27.5-19.99l-22.99,29.5c-1.49,3.47,5.18-.72,6.01-.99,4.5-1.46,9.29-2.79,13.98-3.51l-21,18.49,19-2.49-10,8.49,7.99,1.99c-4.31,2.66-9.96,3.07-14.81,4.19-9.33,2.14-19.7,4.27-29.68,4.4-2.82.04-5.59-1.58-8.5-1.07l7,4.98-30-1.98,4.99,3c.27,1.52-2.52,1.41-3.49,1.43-4.48.08-13.23-.9-17.99-1.45-6.57-.76-12.86-3.35-19.51-2.98.12,1.38,10.13,4.85,7.99,6.99l-20.99-4.99,11,8.98c-9.94-.71-20.6-3.52-30.45-4.02-8.2-.42-6.41,2.98-10.02,3.14-2.98.13-19.68-3.75-20.52-3.09l3,3.98-36.99-3.98c-.9,3.27,4.52,2.45,4.99,4.98l-12.99-1.98,1.99,2.99-12.53-3.97.03,2.98c-5.55-.72-13.83-3.82-19.1-3.91-3.66-.06-7.28,2.09-11.9,1.96-15.27-.44-28.14-2.78-44.08-2.14-11.93.48-22.31-3.23-33.41,1.07l1.49-4-13.49,4,5-5.98c-5.45.49-12.17,1.81-17.51,1.98-13.11.42-27.3-2.45-40.11-3.87-7.79-.87-14.82-.94-22.38-4.13-.55-4.51,6.64-.23,8.99-1-.49-1.34-7.7-5.19-5.99-6.99l15.99,4.99-6.99-8.98,15.99,4.98-5-8.98c5.05-.93,7.58,4.04,11.99,4.99l-1.99-7.99c4.98.3,6.43,5.92,10.5,7.99l.5-4.99c8.62,1.77,6.84,6.74,14.53-.97,6.85-6.87,10.45-16.02,16.46-23.54-27.72.13-52.39-18.01-50.98-47.49,12.35,17.35,32.11,28.38,53.54,21.05,9.54-3.26,10.86-9.65,15.45-17.55l-3.55-1.44c-2.35-2.89,8.43-12.17,10.55-14.56l-3-.5c-2.07-1.96,12.31-15.64,13.99-17.5-12.75-14.69-35-16.84-52.98-12.51,15.19-30.91-15.7-51.09-42-57l9.85-17.64c13.4-34.04-8.38-59.66-30.86-82.35,31.06,4.12,61.93,20.21,87.31,38.18,12.18,8.62,39.29,29.72,40.35,45.18,1.2,17.38-3.89,39.93,14.38,52.09,6.16,4.1,5.95.12,2.95-4.44l8.01-1.01c.77-.78-3.82-6.02,4.26-4.79,2.57.39,4.15,2.89,5.73.29l-2.07-1.07,1.11-3.39,14.96,2.96-2.99-6.99,13.98,5.99c-1.73-17.42-5.02-32.41,3.83-48.67,6.17-11.33,27.22-32.29,39.23-36.77,1.32-.49,2.54-.73,3.94-.55-3.4,9.05-7.66,19.49-9.55,28.94-2.45,12.22-1.57,25.37-3.7,37.3-1.6,8.92-7.92,18.93-6.29,27.8,3.33,18.11,14.73,23.53,8,46.91-2.88,9.99-7.62,13.36-12.95,21.05-.56.81-2.69,1.94-1.01,2.99,13.48-11.32,20.68-27.4,18.25-45.24-1.1-8.05-6.88-16.44-8.28-24.71-1.55-9.14,3.49-18.78,5.24-27.84,4.15-21.47,3.48-37.01,11.28-58.72,1.32-3.66,5.63-11.21,6.03-13.99.45-3.13-4.78-.8-6.28-.27-6.16,2.17-13.43,7.45-19.23,10.75-2.48-1.96-1.52-5.42-1.22-8.21.7-6.58,3.8-12.82,4.59-19.4,2.54-21.06.7-43.65,1.08-64.92.23-13.17-.03-52.7,6.61-62.4,1.82-2.66,5.25-4.99,7.41-7.59,4.92-5.92,3.73-9.44,12.8-12.2,6.21-1.89,18.76-1.01,24.54,1.9,9.4,4.73,10.21,14.4,15.68,21.32,3.1,3.91,8.73,6.16,12.53,10.47,1.54,1.75,2.59,5.15,3.9,6.1,1.53,1.12,13.44,1.62,17.86,3.14,10.82,3.71,22.68,14.5,26.9,25.1,2.54,6.37,2.61,14.55,5.98,20.02,2.7,4.37,8.29,7.21,11.81,11.19,14.74,16.71,10.15,29.04,15.51,47.49,1.63,5.59,5.67,10.51,7.08,15.92,1.49,5.75,1.42,13.09,2.91,19.09,4.34,17.44,10.72,37.55,16.55,54.45,7.38,21.37-.65,39.19-3.89,60.15-1.41,9.13-1.86,18.54-3.29,27.71-1.69,10.9-4.75,21.64-5.83,32.65ZM163.71,291.88c-5.4,1.6-4.01,12.45-1.91,16.54,5.77,11.21,22.66,8.33,17.41-5.42-1.64-4.3-10.52-12.59-15.51-11.12ZM210.71,293.03c-.72-.6-1.49-.96-2.41-1.13-7.64-.64-15.27,18.96-8.29,22.35,7.52,3.65,17.74-15.36,10.7-21.22ZM137.99,406.72c1.61-2.13-5.53-15.03-5.76-17.67-.11-1.31,4.35-10.62,4.76-14.84.28-2.92.2-6.93-.11-9.87-.11-1.03-.4-4.7-1.87-4.62.93,14.7-5.21,31.23-19.75,36.75-11.48,4.36-22.91.81-29.26,14.23,6.82-3.61,15.89-.03,22.3-1.32,6.24-1.25,9.89-5.64,16.69.34-.24-6.85,9.01-6.21,13-3.01ZM169.69,389.41c.68-.8,2.93-4.59,1.82-5.69-2.95,4.04-7.56,5.85-11.23,8.77-1.18.94-2.74,1.13-2.28,3.21,2.34,1.97,10.11-4.44,11.68-6.3Z"/></g></svg>