<svg width="23" height="25" viewBox="0 0 23 25" fill="none" xmlns="http://www.w3.org/2000/svg">
<g filter="url(#filter0_d_99_170)">
<path d="M3.28571 0.625C1.47344 0.625 0 2.08242 0 3.875V20.125C0 21.9176 1.47344 23.375 3.28571 23.375H19.7143C21.5266 23.375 23 21.9176 23 20.125V3.875C23 2.08242 21.5266 0.625 19.7143 0.625H3.28571ZM11.5 11.5633C12.2444 10.0398 14.2723 7.20625 16.1565 5.80977C17.517 4.79922 19.7143 4.02227 19.7143 6.50547C19.7143 7.00313 19.4268 10.6746 19.2574 11.2688C18.6721 13.3406 16.5364 13.8687 14.6368 13.5488C17.9585 14.1074 18.8056 15.9609 16.9779 17.8145C13.5125 21.3336 11.998 16.9309 11.6078 15.8035L11.5924 15.7578C11.5462 15.6258 11.5205 15.5496 11.5 15.5496C11.4795 15.5496 11.4538 15.6258 11.4076 15.7578C11.4025 15.773 11.3973 15.7883 11.3922 15.8035C11.002 16.9309 9.4875 21.3285 6.0221 17.8145C4.19955 15.9609 5.04152 14.1074 8.36317 13.5488C6.46362 13.8687 4.3279 13.3406 3.74263 11.2688C3.57321 10.6746 3.28571 7.00313 3.28571 6.50547C3.28571 4.02227 5.48817 4.8043 6.84353 5.80977C8.72768 7.20625 10.7556 10.0449 11.5 11.5633Z" fill="#EDF1DB"/>
</g>
<defs>
<filter id="filter0_d_99_170" x="-4" y="0.625" width="31" height="30.75" filterUnits="userSpaceOnUse" color-interpolation-filters="sRGB">
<feFlood flood-opacity="0" result="BackgroundImageFix"/>
<feColorMatrix in="SourceAlpha" type="matrix" values="0 0 0 0 0 0 0 0 0 0 0 0 0 0 0 0 0 0 127 0" result="hardAlpha"/>
<feOffset dy="4"/>
<feGaussianBlur stdDeviation="2"/>
<feComposite in2="hardAlpha" operator="out"/>
<feColorMatrix type="matrix" values="0 0 0 0 0 0 0 0 0 0 0 0 0 0 0 0 0 0 0.25 0"/>
<feBlend mode="normal" in2="BackgroundImageFix" result="effect1_dropShadow_99_170"/>
<feBlend mode="normal" in="SourceGraphic" in2="effect1_dropShadow_99_170" result="shape"/>
</filter>
</defs>
</svg>
